<svg width="16" height="18" viewBox="0 0 16 18" fill="none" xmlns="http://www.w3.org/2000/svg">
<path d="M10.0926 12.4967C9.55842 12.5263 9.10338 12.3029 8.6403 12.1272C7.41491 11.665 6.42817 10.8434 5.59785 9.77958C5.16507 9.22152 4.71868 8.67017 4.39966 8.01888C4.12948 7.46821 3.94957 6.89271 4.01263 6.25752C4.07569 5.62233 4.35886 5.09781 4.78236 4.6625C4.88283 4.5634 5.01322 4.50758 5.14899 4.50554C5.33447 4.49884 5.51995 4.4975 5.70543 4.50554C5.85999 4.51359 5.93665 4.63969 5.99168 4.77719C6.11966 5.09311 6.23898 5.41239 6.36264 5.73099C6.45228 5.96172 6.53575 6.19581 6.63343 6.42252C6.67078 6.5019 6.68763 6.59076 6.68219 6.67968C6.67674 6.7686 6.64921 6.85427 6.60252 6.92759C6.46757 7.15211 6.31623 7.36452 6.14995 7.56278C5.99292 7.764 5.98983 7.83108 6.11348 8.05376C6.74101 9.19402 7.60966 10.0291 8.74664 10.5301C8.99395 10.6388 9.07494 10.6247 9.24125 10.404C9.42673 10.1585 9.61221 9.91104 9.79336 9.66086C9.91701 9.48646 9.98934 9.45561 10.1927 9.52671C10.5229 9.63805 10.8258 9.81781 11.1313 9.98885C11.3501 10.1047 11.5761 10.204 11.8076 10.286C11.9461 10.3383 12.0024 10.4523 11.9999 10.6113C11.9888 11.2525 11.8027 11.7844 11.2617 12.1292C10.8908 12.3673 10.5044 12.5249 10.0926 12.4967Z" fill="white"/>
<path d="M8 15.5C11.866 15.5 15 12.366 15 8.5C15 4.63401 11.866 1.5 8 1.5C4.13401 1.5 1 4.63401 1 8.5C1 10.1469 1.56873 11.6609 2.5205 12.8565L2 16L5.34569 14.9792C6.16425 15.3149 7.06051 15.5 8 15.5Z" stroke="white" stroke-width="1.5"/>
</svg>